Felony.Fights.Bloodiest.Battles.dvdrip.xvid




Format                         : AVI
Format/Info                      : Audio Video Interleave
File size                        : 747 MiB
Duration                       : 1h 19mn
Overall bit rate               : 1 310 Kbps
Writing application              : Lavf50.6.0
Writing library                  : VirtualDub build 30091/release

Video
Format                         : xvid
Codec ID                       : xvid
Duration                       : 1h 19mn
Bit rate                       : 1 202 Kbps
Width                            : 720 pixels
Height                         : 480 pixels
Display aspect ratio           : 1.500
Frame rate                     : 25.000 fps
Standard                       : NTSC
Resolution                     : 24 bits
Bits/(Pixel*Frame)             : 0.139
Stream size                      : 685 MiB (92%)

Audio
Format                         : MPEG Audio
Format version                 : Version 1
Format profile                 : Layer 3
Codec ID                       : 55
Codec ID/Hint                    : MP3
Duration                       : 1h 19mn
Bit rate mode                    : Constant
Bit rate                       : 96.0 Kbps
Channel(s)                     : 2 channels
Sampling rate                    : 44.1 KHz
Resolution                     : 16 bits
Stream size                      : 54.7 MiB (7%)
Alignment                        : Aligned on interleaves
Interleave, duration           : 26 ms (0.65 video frame)
Interleave, preload duration   : 522 ms




Category  Sports Highlights DVDs, Sports - Extreme Movies, Music Video
Videos, Education, Media Arts, Violence, Competitions, Gangs, Urban Violence
Standard Screen; Soundtrack English

Some of the most brutal hand to hand battles ever captured on video are
collected on FELONY FIGHTS. The fistfights and street brawls seen here are
between gangs, felony convicts, skinheads, thugs, and more. Each battle is real
and completely uncut, with no rules, making for some of the most vicious and
violent footage ever assembled. Also included are fights between felony women.
Needless to say, FELONY FIGHTS is for mature audiences.



Not the greatest quality but these are fights made with a cam

ENJOY PLEASE SEED

